<?xml version="1.0" encoding="utf-8"?>
<!-- Generator: Adobe Illustrator 19.2.1, SVG Export Plug-In . SVG Version: 6.00 Build 0)  -->
<svg version="1.1" id="Layer_1" xmlns="http://www.w3.org/2000/svg" xmlns:xlink="http://www.w3.org/1999/xlink" x="0px" y="0px"
	 width="35.1px" height="50.6px" viewBox="0 0 35.1 50.6" style="enable-background:new 0 0 35.1 50.6;" xml:space="preserve">
<style type="text/css">
	.st0{fill:#F0EEE9;}
	.st1{fill:none;stroke:#B0A394;stroke-width:2;stroke-miterlimit:10;}
	.st2{fill:#B0A394;}
	.st3{fill:none;stroke:#B0A394;stroke-width:3;stroke-miterlimit:10;}
	.st4{fill:#404041;}
	.st5{fill:none;stroke:#FFFFFF;stroke-width:2;stroke-linecap:round;stroke-miterlimit:10;}
</style>
<path class="st2" d="M18,0.1C17.9,0,17.7,0,17.6,0C7.4,0,0,15.4,0,29.8c0,8.9,3.7,20.9,17.3,20.8c0.1,0,0.1,0,0.1,0
	c0.1,0,0.2,0,0.3,0c13.6,0.1,17.3-11.9,17.3-20.8C35.1,15.7,27.9,0.5,18,0.1z M25,22.5c0,0-9,17.6-11.4,19.3c-0.8,0.6-1.6,0.2-2-0.3
	c-0.4-0.4-0.6-1.1-0.4-1.7l0.1-0.4L14.4,29h-3c-1,0-1.8-0.9-1.8-2.1c0-0.3,0-0.5,0.1-0.7l3.8-14.3c0.2-0.6,0.7-1.1,1.2-1.2
	c0.5-0.1,6.4,0,6.8,0c0.5,0,0.6,0.1,1,0.3c0.4,0.3,0.7,1,0.8,1.6c0,0.6-0.1,0.9-0.1,0.9l-2.6,6.1h3.2c0.9,0,1.6,0.8,1.6,1.8
	C25.3,21.8,25.2,22.2,25,22.5z"/>
</svg>
